<svg width="95" height="95" viewBox="0 0 95 95" fill="none" xmlns="http://www.w3.org/2000/svg">
<g filter="url(#filter0_d_697_461)">
<circle cx="47.5" cy="47.5" r="37.5" fill="#6248CE" fill-opacity="0.09" shape-rendering="crispEdges"/>
</g>
<path d="M64.445 24.485C62.679 24.4868 60.9567 25.0336 59.5138 26.0505C58.0703 27.0677 56.9766 28.5056 56.3819 30.1674C56.342 30.279 56.3047 30.3917 56.2702 30.5059C56.2133 30.7135 56.331 30.9286 56.5366 30.9923C56.7425 31.0556 56.9613 30.9443 57.031 30.7409C57.063 30.6374 57.0975 30.535 57.1345 30.4344H57.1349C57.8203 28.513 59.2363 26.9394 61.0752 26.0551C62.9144 25.1705 65.0279 25.0467 66.9579 25.7102C68.8875 26.3737 70.4778 27.771 71.3834 29.5993C72.289 31.4272 72.437 33.5384 71.7953 35.4752C71.1537 37.4115 69.774 39.0169 67.9556 39.9431C66.1373 40.8693 64.027 41.041 62.0825 40.4217L61.7798 40.3182C61.5728 40.2425 61.3437 40.3484 61.2679 40.555C61.1918 40.7619 61.2982 40.9909 61.5048 41.067L61.8435 41.1826V41.1822C64.3464 41.9854 67.0796 41.5925 69.2547 40.1166C71.4294 38.6407 72.8038 36.2464 72.9809 33.6249C73.158 31.003 72.1183 28.446 70.1617 26.6912L71.1538 25.4966L71.7431 25.9823C71.9135 26.122 72.165 26.0971 72.3048 25.9264C72.4446 25.7561 72.4197 25.5048 72.2489 25.365L71.3526 24.6322L70.4402 23.8834L70.4405 23.8838C70.3584 23.8166 70.2535 23.7849 70.1482 23.7952C70.0425 23.8056 69.9458 23.8575 69.8786 23.9392C69.7391 24.1099 69.764 24.3613 69.9344 24.501L70.5398 24.9988L69.5477 26.1935H69.5481C68.077 25.0863 66.2861 24.4868 64.445 24.485L64.445 24.485Z" fill="#6248CE" stroke="#6248CE" stroke-width="0.9"/>
<path d="M64.4449 27.0537C64.2248 27.0537 64.0466 27.2319 64.0466 27.452V31.7406C63.6717 31.8519 63.3636 32.1197 63.2015 32.4752C63.0396 32.8308 63.0396 33.2389 63.2015 33.5945C63.3636 33.95 63.6717 34.2181 64.0466 34.3291V34.6117C64.0466 34.8318 64.2248 35.01 64.4449 35.01C64.6648 35.01 64.8433 34.8318 64.8433 34.6117V34.3451C65.2179 34.2338 65.5259 33.966 65.6881 33.6105C65.8499 33.2549 65.8499 32.8468 65.6881 32.4912C65.5259 32.1357 65.2179 31.8679 64.8433 31.7566V27.4519C64.8433 27.3463 64.8013 27.245 64.7267 27.1703C64.652 27.0957 64.5506 27.0537 64.4449 27.0537V27.0537ZM65.0105 33.027C65.0105 33.2539 64.8739 33.4583 64.6648 33.5454C64.4553 33.6325 64.2141 33.5853 64.053 33.4253C63.8922 33.2656 63.8431 33.0249 63.9288 32.8148C64.0145 32.605 64.218 32.467 64.4449 32.4656C64.5947 32.4667 64.7384 32.5271 64.8437 32.6338C64.9489 32.7408 65.0076 32.8848 65.0066 33.0349L65.0105 33.027Z" fill="#6248CE" stroke="#6248CE" stroke-width="0.9"/>
<path d="M62.1454 24.1028H66.7427C66.8484 24.1028 66.9497 24.0608 67.0244 23.9862C67.0991 23.9115 67.1411 23.8102 67.1411 23.7046V22.3982C67.1411 22.2926 67.0991 22.1913 67.0244 22.1166C66.9497 22.0419 66.8484 22 66.7427 22H62.1454C61.9256 22 61.7471 22.1781 61.7471 22.3982V23.7046C61.7471 23.8102 61.789 23.9115 61.8637 23.9862C61.9384 24.0608 62.0398 24.1028 62.1454 24.1028ZM62.5438 22.7964H66.3443V23.3063H62.5438V22.7964Z" fill="#6248CE" stroke="#6248CE" stroke-width="0.9"/>
<path d="M35.9483 58.4016C35.801 59.5565 37.0676 60.4247 37.9401 60.7312C38.2948 60.8546 41.0236 60.7789 42.0754 60.4802V60.4805C42.9468 62.3327 43.6144 64.2743 44.0673 66.2704C44.0932 66.3802 44.1622 66.4748 44.2583 66.5335C44.6559 66.6291 45.0657 66.6625 45.4733 66.633C47.5249 66.633 51.6083 66.3105 53.7595 65.721C55.9107 65.1315 61.4443 62.0214 61.1892 60.803C61.0775 60.2494 60.3925 59.8351 59.261 59.2101C58.5916 58.8318 57.8347 58.4137 57.56 58.0475C56.9863 57.3108 56.7953 55.4711 56.843 54.4635C56.8668 53.9259 57.5721 52.1339 58.2572 50.3977C59.289 47.7734 60.4603 44.7988 60.5955 43.17C60.9021 39.5185 59.8824 34.5407 56.0938 31.5183C52.7115 28.8183 43.1902 25.4533 36.92 33.0277C35.7967 34.3454 34.4465 36.2447 34.3547 37.5311C34.3547 37.5909 34.1118 43.5045 34.5301 44.1057C34.5899 44.1892 34.6617 44.277 34.7371 44.3723C34.9363 44.6233 35.2073 44.9618 35.2073 45.1688C35.2073 45.3757 34.9562 45.9414 33.2674 48.948L33.1557 49.1471C33.007 49.4685 32.96 49.8276 33.0212 50.1765C33.0824 50.5253 33.2489 50.847 33.4982 51.0984C33.7913 51.283 34.1132 51.4174 34.4504 51.4967C34.7083 51.5731 34.9612 51.6663 35.2073 51.7754C35.1952 52.1594 35.1116 52.5377 34.9601 52.8904C34.6336 53.46 35.3265 53.9336 35.8287 54.2803L35.9521 54.3678V54.3682C35.7924 54.5253 35.6772 54.7216 35.6174 54.9374C35.5537 55.1763 35.6811 55.3793 35.8404 55.6343H35.8408C35.9553 55.8007 36.0499 55.9799 36.1236 56.168C36.1538 56.7429 36.1122 57.3196 36.0001 57.8842L35.9483 58.4016ZM35.7171 53.165C35.9344 52.6509 36.0297 52.0934 35.9959 51.5362C35.9283 51.138 35.4144 50.9588 34.7051 50.7397H34.7055C34.4689 50.6729 34.2381 50.5865 34.0161 50.4809C33.8024 50.2125 33.7437 49.8519 33.8607 49.5294L33.9724 49.3303C35.8568 45.9732 36.0162 45.4278 36.0162 45.181L36.0158 45.1807C35.9479 44.6893 35.7213 44.2335 35.3706 43.8825L35.2112 43.6756C35.048 43.106 35.0917 38.9605 35.1515 37.5707C35.2151 36.7345 36.0755 35.2732 37.5417 33.5167C43.4255 26.3808 52.4049 29.5665 55.5956 32.123C59.1411 34.9503 60.0933 39.6416 59.8023 43.0866C59.675 44.5998 58.4756 47.6423 57.5156 50.0913C56.6271 52.3534 56.0775 53.7749 56.0494 54.4081C56.0135 55.2046 56.0971 57.4506 56.9336 58.5258C57.3082 59.0076 58.1049 59.4577 58.8697 59.8918C59.3915 60.1866 60.248 60.6883 60.3913 60.9233C60.0527 61.6042 56.0092 64.2883 53.5753 64.9531C50.8902 65.6859 45.9425 65.8811 44.8111 65.8292C44.3928 64.1207 43.0504 59.8559 42.3333 59.6369L42.334 59.6365C42.1974 59.5949 42.0488 59.6216 41.9356 59.7084C40.7082 59.9391 39.4583 60.0287 38.2109 59.975C37.5696 59.756 36.6573 59.1348 36.7368 58.5016L36.8044 57.9718C36.936 56.9642 37.0274 56.2993 36.8919 55.901V55.9014C36.7991 55.6522 36.676 55.4157 36.5256 55.1963L36.442 55.053C36.49 54.9723 36.5522 54.9009 36.6252 54.8418C36.7827 54.7274 36.883 54.5503 36.9001 54.3562C36.8955 54.204 36.8293 54.0603 36.7169 53.9579C36.586 53.8406 36.4462 53.7339 36.2986 53.6394C36.093 53.4996 35.901 53.3407 35.7249 53.1654L35.7171 53.165Z" fill="#6248CE" stroke="#6248CE" stroke-width="0.9"/>
<path d="M43.0923 45.4947C43.4003 45.9153 43.6522 46.3747 43.841 46.8608C43.9527 47.259 44.0363 47.6572 44.1078 48.0035H44.1082C44.1772 48.3858 44.2785 48.7612 44.4109 49.1264C44.4073 49.157 44.4073 49.1875 44.4109 49.2181L44.4308 51.0699C44.4308 52.0907 44.9753 53.0339 45.8599 53.5442C46.7442 54.0548 47.8337 54.0548 48.7183 53.5442C49.6025 53.034 50.1474 52.0907 50.1474 51.0699L50.1115 49.2181C50.1143 49.1929 50.1143 49.1676 50.1115 49.1424C50.2438 48.7772 50.3452 48.4018 50.4142 48.0195C50.486 47.6771 50.5696 47.2907 50.681 46.8768L50.6813 46.8764C50.8638 46.3857 51.1103 45.9214 51.414 45.4947C52.1389 44.3719 53.1348 42.8344 53.1348 40.8593C53.1348 37.7969 50.4419 35.2085 47.251 35.2085C44.0601 35.2085 41.3711 37.809 41.3711 40.8714C41.3711 42.8426 42.3632 44.3836 43.0923 45.4947L43.0923 45.4947ZM47.2869 53.1366C46.8626 53.1352 46.4489 53.0022 46.1028 52.7562C45.7567 52.5101 45.4957 52.1631 45.3548 51.7628C45.9325 51.8488 46.5158 51.8915 47.0998 51.8901C47.3196 51.8901 47.4982 51.7119 47.4982 51.4918C47.4982 51.2721 47.3196 51.0936 47.0998 51.0936C46.4706 51.095 45.8428 51.0406 45.2236 50.9304L45.2037 49.7876C45.5988 49.8577 45.9979 49.9053 46.3988 49.9309C46.6538 49.9309 46.9288 49.9629 47.2315 49.9629C47.5342 49.9629 47.797 49.9629 48.056 49.9309C48.5938 49.8911 49.048 49.8275 49.3229 49.7795L49.3468 51.0698C49.3478 51.617 49.1312 52.1421 48.7449 52.5297C48.3587 52.9172 47.8344 53.1355 47.2869 53.1366L47.2869 53.1366ZM46.7491 44.945L45.4583 41.8229L47.251 41.1143L48.9718 41.8111L47.6771 44.9372H47.6774C47.6568 44.9852 47.6461 45.0364 47.6454 45.0887V49.1505H46.7808L46.7811 45.0965C46.7804 45.0446 46.7697 44.993 46.7491 44.945H46.7491ZM47.251 36.0171C50.0076 36.0171 52.3381 38.2393 52.3381 40.8714C52.3381 42.6076 51.4538 43.9736 50.7446 45.0726H50.7449C50.3878 45.5605 50.1022 46.097 49.8963 46.6655C49.7768 47.1036 49.6932 47.5018 49.6174 47.8602C49.5584 48.2456 49.4524 48.6228 49.3026 48.983C49.1355 49.015 48.8246 49.0627 48.4461 49.1025V45.1761L49.8642 41.7514L50.1193 41.1381C50.2029 40.9347 50.1058 40.7021 49.9023 40.6186C49.6988 40.535 49.4659 40.6321 49.3823 40.8355L49.2788 41.0865L47.4026 40.3178C47.3069 40.279 47.1995 40.279 47.1038 40.3178L45.1517 41.0865L45.0482 40.8316C44.9646 40.6282 44.7316 40.5308 44.5282 40.6143C44.3247 40.6979 44.2276 40.9308 44.3112 41.1341L45.9844 45.1721V49.0786C45.6258 49.0388 45.3548 48.9912 45.2076 48.9592C45.0553 48.5979 44.9483 48.2196 44.8889 47.832C44.8131 47.4815 44.7295 47.0793 44.61 46.6374C44.4041 46.0688 44.1184 45.5326 43.7613 45.0445C43.0521 43.9455 42.1678 42.5794 42.1678 40.8433C42.1678 38.2392 44.4944 36.017 47.251 36.017L47.251 36.0171Z" fill="#6248CE" stroke="#6248CE" stroke-width="0.9"/>
<path d="M37.9052 41.5842H39.3593C39.5795 41.5842 39.7577 41.4057 39.7577 41.1859C39.7577 40.9658 39.5795 40.7877 39.3593 40.7877H37.9052C37.6854 40.7877 37.5068 40.9658 37.5068 41.1859C37.5068 41.4057 37.6854 41.5842 37.9052 41.5842Z" fill="#6248CE" stroke="#6248CE" stroke-width="0.9"/>
<path d="M55.1464 41.5842H56.6005C56.8203 41.5842 56.9989 41.4057 56.9989 41.1859C56.9989 40.9658 56.8203 40.7877 56.6005 40.7877H55.1464C54.9262 40.7877 54.748 40.9658 54.748 41.1859C54.748 41.4057 54.9262 41.5842 55.1464 41.5842Z" fill="#6248CE" stroke="#6248CE" stroke-width="0.9"/>
<path d="M47.207 33.6955C47.3126 33.6955 47.414 33.6536 47.4887 33.5789C47.5634 33.5043 47.6054 33.4029 47.6054 33.2973V31.8399C47.6054 31.6201 47.4272 31.4417 47.207 31.4417C46.9872 31.4417 46.8086 31.6201 46.8086 31.8399V33.2934C46.8075 33.3997 46.8492 33.5021 46.9239 33.5775C46.9989 33.6532 47.1006 33.6955 47.207 33.6955Z" fill="#6248CE" stroke="#6248CE" stroke-width="0.9"/>
<path d="M41.3426 35.8898C41.4987 36.0502 41.7555 36.0537 41.9163 35.8977C42.0767 35.7416 42.0803 35.4848 41.9241 35.3241L40.8962 34.2966V34.2969C40.7411 34.1405 40.4889 34.1398 40.3328 34.2948C40.1763 34.4498 40.1755 34.7023 40.3306 34.8584L41.3426 35.8898Z" fill="#6248CE" stroke="#6248CE" stroke-width="0.9"/>
<path d="M53.0794 46.4829C52.9214 46.3475 52.6856 46.3567 52.5387 46.5036C52.3915 46.6508 52.3822 46.8861 52.5177 47.0444L53.5457 48.0719L53.5453 48.0715C53.7036 48.207 53.9391 48.1978 54.0863 48.0509C54.2336 47.9037 54.2425 47.6684 54.1073 47.5101L53.0794 46.4829Z" fill="#6248CE" stroke="#6248CE" stroke-width="0.9"/>
<path d="M52.7523 35.9738C52.858 35.9745 52.9597 35.9329 53.0351 35.8582L54.0631 34.8307H54.0627C54.1982 34.6728 54.189 34.4374 54.0421 34.2902C53.8948 34.143 53.6594 34.1341 53.5011 34.2693L52.4731 35.2968H52.4735C52.3586 35.4106 52.3237 35.5827 52.386 35.732C52.4479 35.8817 52.5944 35.9787 52.7563 35.9777L52.7523 35.9738Z" fill="#6248CE" stroke="#6248CE" stroke-width="0.9"/>
<path d="M40.562 48.1587C40.6677 48.1594 40.7694 48.1178 40.8448 48.0432L41.8727 47.0156H41.8724C42.0079 46.8577 41.9986 46.6224 41.8517 46.4752C41.7045 46.328 41.469 46.3191 41.3107 46.4542L40.2789 47.4857C40.164 47.5994 40.1295 47.7715 40.1917 47.9212C40.2536 48.0705 40.4002 48.1676 40.562 48.1665V48.1587Z" fill="#6248CE" stroke="#6248CE" stroke-width="0.9"/>
<path d="M36.0963 63.9765C36.0988 63.7781 35.9544 63.6082 35.7577 63.5783L34.2161 63.3433C34.135 63.1171 34.0393 62.8963 33.9294 62.6823L34.8218 61.4677H34.8215C34.9381 61.3091 34.9211 61.089 34.7816 60.95L33.1882 59.3571C33.0491 59.2178 32.8293 59.201 32.6703 59.3173L31.4076 60.2293C31.1906 60.1259 30.9669 60.0366 30.7382 59.9627L30.5112 58.4733C30.4814 58.277 30.3113 58.1323 30.1129 58.1348H27.8421C27.6436 58.1323 27.4736 58.277 27.4437 58.4733L27.2086 60.0143C26.982 60.0954 26.7611 60.191 26.5474 60.3012L25.3401 59.4091C25.1815 59.2925 24.9613 59.3096 24.8223 59.449L23.2288 61.0418C23.0893 61.1809 23.0726 61.4009 23.1889 61.5595L24.1091 62.8139H24.1094C24.0055 63.0308 23.9166 63.2541 23.8423 63.4827L22.3523 63.7095V63.7099C22.156 63.7398 22.0116 63.9094 22.0137 64.1081V66.378C22.0116 66.5764 22.156 66.7464 22.3523 66.7762L23.8939 67.0113H23.8943C23.9754 67.2374 24.071 67.4582 24.1809 67.6722L23.2885 68.8868C23.1722 69.0454 23.1889 69.2655 23.3284 69.4045L24.9219 70.9974C25.0609 71.1368 25.2811 71.1535 25.4397 71.0372L26.6946 70.1174C26.9116 70.2209 27.1353 70.3102 27.364 70.3841L27.5909 71.8735C27.6208 72.0698 27.7908 72.2141 27.9893 72.212H30.2601C30.4589 72.2141 30.6289 72.0698 30.6585 71.8735L30.8936 70.3325V70.3321C31.1201 70.2514 31.341 70.1554 31.5548 70.0456L32.762 70.9537C32.9207 71.0699 33.1408 71.0532 33.2799 70.9138L34.8734 69.321C35.0128 69.1819 35.0299 68.9618 34.9133 68.8033L33.9931 67.5489C34.0966 67.332 34.1859 67.1084 34.2599 66.8797L35.7499 66.6529C35.9462 66.623 36.0906 66.4531 36.0885 66.2547L36.0963 63.9765ZM35.2996 65.904L33.8975 66.1191C33.742 66.1436 33.6154 66.2574 33.5749 66.4096C33.4795 66.7502 33.3458 67.0791 33.1765 67.3895C33.105 67.5246 33.1174 67.6886 33.2081 67.8116L34.0725 69.0062L32.9492 70.1291L31.806 69.2889C31.6786 69.1957 31.5086 69.1865 31.3717 69.2651C31.0661 69.4333 30.7428 69.5669 30.4077 69.6633C30.2601 69.7077 30.1516 69.8333 30.1289 69.9858L29.9059 71.4272H28.3124L28.0972 70.0257C28.0726 69.8703 27.9585 69.7437 27.8062 69.7032C27.4655 69.6079 27.1368 69.4742 26.8263 69.3049C26.6911 69.2335 26.5271 69.2459 26.4041 69.3366L25.2089 70.2006L24.0857 69.0777L24.9262 67.935C25.0194 67.8077 25.0286 67.6377 24.95 67.5008C24.7814 67.1954 24.648 66.8722 24.5516 66.5373C24.5072 66.3897 24.3812 66.2813 24.229 66.2585L22.8027 66.0434V64.4505L24.2048 64.2354C24.3606 64.2109 24.4869 64.0971 24.5278 63.9449C24.6227 63.6043 24.7565 63.2754 24.9261 62.965C24.9973 62.8299 24.9848 62.666 24.8941 62.5429L24.0298 61.3483L25.1531 60.2254L26.2963 61.0656C26.4236 61.1588 26.594 61.168 26.7306 61.0894C27.0361 60.9209 27.3594 60.7876 27.6949 60.6912C27.8421 60.6468 27.951 60.5213 27.9737 60.3687L28.1968 58.9273H29.7902L29.9734 60.3367C29.998 60.4924 30.1121 60.6186 30.2644 60.6595C30.6051 60.7545 30.9338 60.8881 31.2443 61.0577C31.3834 61.1356 31.5559 61.1232 31.6825 61.0257L32.8777 60.1618L34.0009 61.2846L33.1604 62.4196C33.0673 62.5468 33.058 62.7168 33.1366 62.8537C33.3049 63.1591 33.4386 63.4823 33.535 63.8172C33.5794 63.9648 33.705 64.0732 33.8576 64.096L35.2996 64.3189L35.2996 65.904Z" fill="#6248CE" stroke="#6248CE" stroke-width="0.9"/>
<path d="M29.0522 61.9895C28.2067 61.9895 27.3961 62.3251 26.7986 62.9228C26.201 63.5202 25.8652 64.3305 25.8652 65.1753C25.8652 66.0204 26.201 66.8308 26.7986 67.4281C27.3961 68.0253 28.2068 68.361 29.0522 68.361C29.8973 68.361 30.708 68.0254 31.3055 67.4281C31.9034 66.8307 32.2392 66.0204 32.2392 65.1753C32.2392 64.3305 31.9034 63.5201 31.3055 62.9228C30.708 62.3252 29.8973 61.9895 29.0522 61.9895ZM29.0522 67.5646C28.4184 67.5646 27.8101 67.3129 27.362 66.8649C26.9139 66.4169 26.662 65.8092 26.662 65.1753C26.662 64.5417 26.9139 63.934 27.362 63.486C27.8102 63.0377 28.4185 62.786 29.0522 62.786C29.6861 62.786 30.294 63.0377 30.7424 63.486C31.1906 63.934 31.4424 64.5417 31.4424 65.1753C31.4456 65.811 31.1952 66.4219 30.7463 66.8727C30.2978 67.3232 29.6882 67.5767 29.0522 67.5767V67.5646Z" fill="#6248CE" stroke="#6248CE" stroke-width="0.9"/>
<path d="M40.749 68.9345C40.5218 68.3848 39.9377 68.0719 39.3541 68.1878C38.7704 68.3037 38.3496 68.8157 38.3496 69.4106C38.3496 70.0055 38.7704 70.5174 39.3541 70.633C39.9378 70.7489 40.5218 70.436 40.749 69.8864C40.875 69.5817 40.875 69.2393 40.749 68.9346V68.9345ZM39.7808 69.8383V69.8387C39.6137 69.9108 39.4191 69.8756 39.2882 69.7487C39.1577 69.6218 39.1164 69.4283 39.1836 69.2591C39.2512 69.0899 39.4141 68.9779 39.5966 68.9757C39.7791 68.9736 39.9445 69.0813 40.016 69.2491C40.1131 69.4767 40.0081 69.7402 39.7809 69.8387L39.7808 69.8383Z" fill="#6248CE" stroke="#6248CE" stroke-width="0.9"/>
<path d="M42.9446 69.1019L42.2076 68.7037L41.9248 68.0345L42.14 67.2381C42.1792 67.0941 42.1343 66.9405 42.0244 66.8399C41.3323 66.2013 40.4164 65.861 39.4748 65.892C39.3226 65.8969 39.1867 65.9883 39.1241 66.127L38.7933 66.8676L38.2993 67.0788L37.5427 66.8039C37.4033 66.7588 37.25 66.794 37.1443 66.8957C36.4682 67.5513 36.0776 68.447 36.0567 69.3885C36.0549 69.5357 36.1346 69.6722 36.264 69.743L37.001 70.1412L37.2877 70.8061L37.0725 71.6025C37.0334 71.7465 37.0782 71.9001 37.1881 72.0008C37.8447 72.6173 38.7094 72.9643 39.6104 72.9725H39.7377C39.89 72.9675 40.0262 72.8765 40.0885 72.7375L40.4193 71.9969L40.9133 71.7857L41.678 72.0566C41.8175 72.1018 41.9704 72.0666 42.0764 71.9649C42.748 71.3028 43.1314 70.4029 43.1439 69.4603C43.1489 69.3131 43.0724 69.1752 42.9447 69.1019L42.9446 69.1019ZM41.6937 71.2125L41.0285 70.9814C40.935 70.9448 40.8311 70.9448 40.7376 70.9814L39.9408 71.316C39.8487 71.3551 39.7747 71.4276 39.7338 71.519L39.4628 72.1761C38.8965 72.1451 38.3533 71.9421 37.9052 71.5947L38.0923 70.8939H38.0927C38.1215 70.81 38.1215 70.7187 38.0927 70.6351L37.6943 69.7153V69.715C37.6588 69.6335 37.5969 69.5663 37.519 69.524L36.8816 69.1777V69.1774C36.9374 68.6138 37.164 68.0801 37.5307 67.6485L38.1958 67.8835L38.1962 67.8831C38.2897 67.9198 38.3936 67.9198 38.4868 67.8831L39.2835 67.5486V67.5489C39.3757 67.5094 39.4497 67.4369 39.4909 67.3455L39.7776 66.7006C40.3439 66.7315 40.8874 66.9345 41.3351 67.2819L41.1281 67.9628C41.0993 68.0467 41.0993 68.1381 41.1281 68.2216L41.5265 69.1414V69.1418C41.5621 69.2232 41.6236 69.2904 41.7018 69.3327L42.3392 69.679V69.6794C42.2862 70.2436 42.0625 70.7784 41.6979 71.2125L41.6937 71.2125Z" fill="#6248CE" stroke="#6248CE" stroke-width="0.9"/>
<path d="M72.5987 48.2108C72.3786 48.2108 72.2004 48.3893 72.2004 48.609C72.1644 49.3777 72.093 50.1543 71.9852 50.9187C71.3851 55.2117 69.665 59.2711 66.9977 62.6888C64.33 66.1064 60.8098 68.762 56.7902 70.3879C52.7705 72.0142 48.3938 72.554 44.0987 71.9531C43.8789 71.9221 43.6755 72.0754 43.6445 72.2954C43.6139 72.5155 43.7672 72.7186 43.9874 72.7495C45.175 72.9159 46.373 72.9998 47.5728 73.0002C53.7145 72.9874 59.6451 70.7584 64.2744 66.7236C68.9037 62.6887 71.9204 57.1189 72.7698 51.0387C72.8814 50.2422 72.9529 49.4458 72.9928 48.6493C73.0038 48.5377 72.9675 48.4268 72.8925 48.3432C72.8174 48.26 72.7107 48.212 72.5983 48.2113L72.5987 48.2108Z" fill="#6248CE" stroke="#6248CE" stroke-width="0.9"/>
<path d="M72.2012 43.0023C71.9846 43.039 71.8384 43.2438 71.8747 43.4603C71.9743 44.0615 72.05 44.6549 72.1059 45.28H72.1055C72.1244 45.4859 72.2972 45.6434 72.5039 45.6423H72.5398C72.7586 45.6235 72.9208 45.4311 72.9023 45.2124C72.8464 44.5831 72.7667 43.9541 72.6632 43.333V43.3327C72.6469 43.2274 72.5885 43.1328 72.5014 43.0706C72.4146 43.0084 72.3065 42.9839 72.2012 43.0024L72.2012 43.0023Z" fill="#6248CE" stroke="#6248CE" stroke-width="0.9"/>
<path d="M22.4042 48.4018C22.5098 48.4018 22.6112 48.3599 22.6859 48.2852C22.7606 48.2106 22.8025 48.1092 22.8025 48.0036C22.7776 46.692 22.8563 45.3804 23.0377 44.0811C23.7544 38.9249 26.0834 34.127 29.6915 30.3741C33.3 26.6206 38.0026 24.1029 43.1279 23.181C48.253 22.2594 53.5394 22.9804 58.2297 25.2418C58.325 25.2912 58.4367 25.3001 58.5388 25.266C58.6405 25.2322 58.7248 25.1582 58.7714 25.0615C58.8184 24.9645 58.824 24.8528 58.7871 24.7518C58.7504 24.6509 58.6743 24.5691 58.5761 24.525C53.3169 21.9963 47.3497 21.3463 41.6687 22.6833C35.9879 24.0202 30.9376 27.2631 27.3591 31.8719C23.7808 36.4803 21.891 42.1756 22.0049 48.0083C22.007 48.2266 22.1848 48.4026 22.4032 48.4026L22.4042 48.4018Z" fill="#6248CE" stroke="#6248CE" stroke-width="0.9"/>
<path d="M22.6708 51.197C22.4546 51.2336 22.3084 51.4384 22.3443 51.6549C22.456 52.3241 22.5954 52.9929 22.7427 53.646C22.7875 53.8281 22.9536 53.9543 23.141 53.949C23.1727 53.9525 23.2051 53.9525 23.2367 53.949C23.3417 53.9244 23.432 53.8587 23.4878 53.7662C23.5433 53.6741 23.559 53.5632 23.5316 53.459C23.3722 52.8219 23.2367 52.1687 23.1332 51.5237C23.1154 51.4188 23.0567 51.3253 22.97 51.2642C22.8832 51.2027 22.7757 51.1788 22.6708 51.197L22.6708 51.197Z" fill="#6248CE" stroke="#6248CE" stroke-width="0.9"/>
<defs>
<filter id="filter0_d_697_461" x="0" y="0" width="95" height="95" filterUnits="userSpaceOnUse" color-interpolation-filters="sRGB">
<feFlood flood-opacity="0" result="BackgroundImageFix"/>
<feColorMatrix in="SourceAlpha" type="matrix" values="0 0 0 0 0 0 0 0 0 0 0 0 0 0 0 0 0 0 127 0" result="hardAlpha"/>
<feOffset/>
<feGaussianBlur stdDeviation="5"/>
<feComposite in2="hardAlpha" operator="out"/>
<feColorMatrix type="matrix" values="0 0 0 0 0.384314 0 0 0 0 0.282353 0 0 0 0 0.807843 0 0 0 0.25 0"/>
<feBlend mode="normal" in2="BackgroundImageFix" result="effect1_dropShadow_697_461"/>
<feBlend mode="normal" in="SourceGraphic" in2="effect1_dropShadow_697_461" result="shape"/>
</filter>
</defs>
</svg>
