<svg width="95" height="95" viewBox="0 0 95 95" fill="none" xmlns="http://www.w3.org/2000/svg">
<path d="M51.021 67.9376L59.0977 68.31C59.8887 68.3497 60.2342 68.6862 60.5518 69.2116C61.0063 69.9686 60.9515 71.0031 60.547 71.7912C60.1444 72.5747 59.4148 73.0071 58.7915 73.0071H50.5972C50.0207 72.8459 49.5037 72.371 49.1782 71.7401C48.7742 70.9567 48.7784 69.9526 49.1829 69.1653C49.5855 68.3818 50.292 67.9419 51.0211 67.9377L51.021 67.9376ZM50.8253 61.3522L60.305 61.8338C61.0884 61.8772 61.7826 62.2817 62.179 63.0576C62.5816 63.8411 62.5816 64.8447 62.1743 65.6362C61.7703 66.4249 61.0638 66.8591 60.3323 66.8638L51.0676 66.4282C50.2841 66.3927 49.5857 65.9816 49.1902 65.2095C48.7597 64.3665 48.6444 63.2915 49.0139 62.5789C49.4212 61.7793 50.1386 61.3167 50.8252 61.3521L50.8253 61.3522ZM61.1041 55.2995C61.8379 55.2995 62.5387 55.7385 62.9427 56.5219C63.3425 57.3068 63.3425 58.3142 62.9337 59.1019C62.5425 59.8627 61.7264 60.4619 61.0091 60.4232L53.7457 60.0078C54.5693 59.3373 55.117 58.3851 54.9998 57.3611L54.7696 55.3103L61.1041 55.2995ZM62.104 49.0501C62.8378 49.0501 63.5386 49.482 63.9426 50.266C64.3424 51.0533 64.3424 52.0575 63.9379 52.8446C63.6837 53.3356 63.3453 53.7944 62.6365 53.7944L54.6009 53.8048L54.0674 49.0619L62.104 49.0501ZM53.2594 20.5034C50.8131 20.468 48.2538 20.7066 45.8225 21.1849C41.9336 21.9532 38.3819 23.3212 36.1666 25.3569C36.0093 25.5015 35.92 25.7009 35.92 25.9126C35.92 34.1344 37.0985 38.3919 39.5977 44.5397C39.9658 45.5004 41.4081 44.912 40.9931 43.9674C38.5784 38.0243 37.512 34.0724 37.4651 26.3492C39.3577 24.7142 42.5181 23.3822 46.1173 22.6723C49.6099 21.9791 53.3614 21.9319 56.5647 22.3704C54.9727 30.3167 55.7335 42.0148 56.9999 47.5504L53.8949 47.559L53.824 46.9116C53.6992 45.8068 53.2872 44.8768 52.558 44.3982C51.723 43.8576 50.9774 43.7442 50.1306 43.9006L42.5364 45.3007C40.5575 45.665 39.3931 46.5676 38.3861 47.7238L34.6964 51.9729C34.5863 51.6209 34.4729 51.2637 34.3477 50.9069C34.2423 50.6087 33.9555 50.4051 33.638 50.4093H26.5465C25.5183 50.4093 25.4687 51.9148 26.5465 51.9148H33.011C35.473 59.2769 34.8775 65.6546 33.0894 73.6968H26.5471C25.4843 73.6335 25.4843 75.26 26.5471 75.2023H33.7368C34.0889 75.2023 34.3918 74.9589 34.4698 74.6182C36.2068 67.0008 37.0111 60.6775 35.2036 53.7145L39.5273 48.7121C40.4342 47.6696 41.1269 47.0974 42.8129 46.7874L50.4024 45.3844C51.6414 45.1562 52.2179 46.1452 52.3242 47.0855L53.4919 57.3727C53.5708 58.0863 53.0538 58.7922 52.2567 59.1967C51.4609 59.6003 50.3982 59.6745 49.6454 59.1996C48.7797 58.6514 48.4928 57.8198 48.344 57.0235L47.2505 51.199C47.1919 50.8347 46.8744 50.572 46.5053 50.572C46.0276 50.572 45.6703 51.011 45.7686 51.4774L47.3799 60.0432C47.7164 61.8506 45.6117 64.5833 41.1514 63.8887C40.1354 63.7049 39.8968 65.2459 40.9156 65.3791C43.6568 65.8053 45.8782 65.0653 47.2822 63.8178C47.3176 64.5507 47.5336 65.2728 47.8511 65.8999C48.1176 66.4216 48.4938 66.8492 48.9261 67.1785C48.4909 67.5197 48.1148 67.9582 47.8469 68.4799C47.2122 69.7142 47.2042 71.1994 47.835 72.4356C47.9414 72.6397 48.0675 72.8306 48.2041 73.012L41.2884 73.0083C40.4298 73.012 39.9436 72.8079 39.5401 72.4875C39.1365 72.1615 38.8076 71.6752 38.4669 71.0874C37.9651 70.2175 36.659 70.9702 37.1608 71.8402C37.5251 72.4715 37.9405 73.1378 38.6001 73.6642C39.2579 74.1887 40.1552 74.5261 41.2889 74.5185H58.8018C60.0725 74.5185 61.3653 73.7733 61.8946 72.4885C62.5888 70.794 62.353 69.4571 61.6432 68.1057C62.4357 67.7759 63.0944 67.1484 63.5173 66.3294C64.1524 65.0952 64.1599 63.6085 63.5291 62.3748C63.3287 61.9901 63.0707 61.6574 62.7763 61.3753C63.3996 61.0176 63.9288 60.4775 64.2771 59.7985C64.9122 58.5642 64.9122 57.0739 64.2818 55.8438C64.1367 55.5579 63.9567 55.2943 63.7526 55.0594C64.5129 54.7102 65.0156 54.0515 65.277 53.5421C65.9121 52.3059 65.9121 50.8165 65.2818 49.586C64.6509 48.3517 63.4397 47.5436 62.0988 47.5436L60.9373 47.5474C62.9645 42.1964 66.2297 37.3467 69.6595 35.0729C69.9931 34.8536 70.099 34.4104 69.8991 34.0664C69.057 32.6038 67.681 31.6465 66.0857 31.6323C65.1756 31.6205 64.9923 32.9144 65.8343 33.0202C66.9235 33.1563 67.6248 33.5925 68.1985 34.306C65.6737 36.132 63.5217 38.8727 61.7818 42.0444C62.8644 35.9009 63.9578 31.0234 66.0347 27.292C66.2109 26.9697 66.1334 26.5662 65.8466 26.3346C65.0229 25.6759 63.9219 25.1944 62.7061 24.9586C62.0989 24.8414 61.4642 24.7861 60.8169 24.8022C60.1733 24.8178 59.5231 24.909 58.8838 25.08C57.8607 25.3083 58.2718 26.8488 59.2722 26.5359C61.1349 26.0383 63.1697 26.6531 64.404 27.4333C61.8163 32.5292 60.7498 39.0219 59.3232 47.5519H58.5502C57.2842 42.3648 56.3434 29.4208 58.0998 21.7791C58.1939 21.3567 57.9146 20.9399 57.4879 20.8699C56.1534 20.6389 54.7264 20.5222 53.2601 20.5037L53.2594 20.5034Z" fill="#6248CE"/>
<path fill-rule="evenodd" clip-rule="evenodd" d="M51.4359 23.8741L42.4816 25.5677C42.0421 25.6542 41.7756 26.1007 41.9042 26.5284C42.148 27.3284 42.0029 28.1903 41.5044 28.8608C41.1708 29.3117 40.7124 29.6405 40.1945 29.8055C39.8774 29.908 39.6653 30.2095 39.67 30.5393C39.7565 34.4283 40.7913 38.8769 42.4528 43.142C42.8058 44.1108 44.2527 43.547 43.861 42.5972C42.2922 38.5764 41.3485 34.5848 41.2267 31.0019C41.7677 30.716 42.3437 30.2643 42.716 29.7624C43.3124 28.9601 43.5817 27.8889 43.5118 26.9121L50.2427 25.6348C50.0235 26.4079 50.0547 27.078 50.3061 27.8619C50.6283 28.8736 51.4425 29.7672 52.3526 30.2766C51.9921 34.2252 52.2463 37.3921 52.7014 41.0147C52.828 42.0141 54.3288 41.827 54.2036 40.8271C53.7452 37.1644 53.5217 33.8244 53.9054 29.8924C53.9409 29.5437 53.7329 29.2134 53.4041 29.1004C52.6116 28.8311 52.0002 28.2031 51.7459 27.4078C51.4945 26.6116 51.6358 25.7444 52.1254 25.0677C52.511 24.5404 52.079 23.7522 51.4359 23.8736L51.4359 23.8741Z" fill="#6248CE"/>
<g filter="url(#filter0_d_697_431)">
<circle cx="47.5" cy="47.5" r="37.5" fill="#6248CE" fill-opacity="0.09" shape-rendering="crispEdges"/>
</g>
<defs>
<filter id="filter0_d_697_431" x="0" y="0" width="95" height="95" filterUnits="userSpaceOnUse" color-interpolation-filters="sRGB">
<feFlood flood-opacity="0" result="BackgroundImageFix"/>
<feColorMatrix in="SourceAlpha" type="matrix" values="0 0 0 0 0 0 0 0 0 0 0 0 0 0 0 0 0 0 127 0" result="hardAlpha"/>
<feOffset/>
<feGaussianBlur stdDeviation="5"/>
<feComposite in2="hardAlpha" operator="out"/>
<feColorMatrix type="matrix" values="0 0 0 0 0.384314 0 0 0 0 0.282353 0 0 0 0 0.807843 0 0 0 0.25 0"/>
<feBlend mode="normal" in2="BackgroundImageFix" result="effect1_dropShadow_697_431"/>
<feBlend mode="normal" in="SourceGraphic" in2="effect1_dropShadow_697_431" result="shape"/>
</filter>
</defs>
</svg>
