<svg width="95" height="95" viewBox="0 0 95 95" fill="none" xmlns="http://www.w3.org/2000/svg">
<g filter="url(#filter0_d_697_443)">
<circle cx="47.5" cy="47.5" r="37.5" fill="#6248CE" fill-opacity="0.09" shape-rendering="crispEdges"/>
</g>
<path d="M69.7173 44.5165H54.7494C54.4377 44.5165 54.1867 44.7715 54.1867 45.0882V52.5004H39.7809C39.4692 52.5004 39.2182 52.7554 39.2182 53.0721L39.2185 61.9063H24.8128C24.501 61.9063 24.25 62.1614 24.25 62.4777V70.1782C24.25 70.4949 24.501 70.7499 24.8128 70.7499H69.7173C70.029 70.7499 70.28 70.4949 70.28 70.1782L70.2797 45.0835C70.2797 44.7718 70.0241 44.5167 69.7169 44.5167L69.7173 44.5165ZM25.3708 63.0496H39.2186V69.6067H25.3708V63.0496ZM40.3395 62.4778V53.6394H54.1873V69.6071L40.3395 69.6068V62.4778ZM69.1552 69.6066H55.3074V45.6551H69.1552V69.6066Z" fill="#6248CE" stroke="#6248CE" stroke-width="0.8"/>
<path d="M70.684 30.4765C70.526 29.9852 70.1167 29.6355 69.6146 29.5601L65.3412 28.9317L63.43 25.001C63.2069 24.538 62.7511 24.25 62.2442 24.25C61.7372 24.25 61.2815 24.538 61.0584 25.001L59.1472 28.9317L54.8738 29.5601C54.3717 29.6356 53.9624 29.9852 53.8044 30.4765C53.6465 30.9678 53.7765 31.4971 54.1392 31.856L57.2312 34.9173L56.5011 39.2398C56.4174 39.7499 56.6172 40.2507 57.0265 40.5529C57.4359 40.8554 57.9704 40.893 58.4216 40.6567L62.2438 38.616L66.066 40.6567C66.2613 40.7605 66.4705 40.8126 66.6845 40.8126C66.9589 40.8126 67.2285 40.7276 67.461 40.5529C67.8704 40.2504 68.0747 39.7452 67.9865 39.2398L67.2564 34.9173L70.3484 31.856C70.7117 31.4925 70.8421 30.9679 70.6838 30.4765L70.684 30.4765ZM69.5633 31.0387L66.2617 34.308C66.1316 34.4401 66.071 34.6293 66.0989 34.8135L66.8799 39.4289C66.8984 39.5377 66.8381 39.599 66.8008 39.6273C66.7635 39.6556 66.6846 39.6935 66.587 39.6415L62.5043 37.4636C62.4207 37.4211 62.3324 37.3974 62.2439 37.3974C62.1557 37.3974 62.0626 37.4211 61.9834 37.4636L57.9008 39.6415C57.8031 39.6935 57.7289 39.6556 57.687 39.6273C57.6497 39.599 57.5894 39.5377 57.6079 39.4289L58.3889 34.8135C58.4214 34.6293 58.361 34.4401 58.2261 34.308L54.9245 31.0387C54.8453 30.9632 54.8593 30.8733 54.8732 30.8308C54.8872 30.7836 54.929 30.7078 55.036 30.6937L59.5978 30.0181C59.7791 29.9898 59.9374 29.8764 60.0211 29.7064L62.0626 25.5065C62.109 25.4073 62.1975 25.3932 62.2439 25.3932C62.2909 25.3935 62.3792 25.403 62.4259 25.5022L64.4674 29.7021C64.5511 29.8721 64.709 29.9855 64.8907 30.0138L69.4524 30.6894C69.5595 30.7036 69.6013 30.784 69.6153 30.8265C69.6286 30.8736 69.6425 30.9586 69.5634 31.0387H69.5633Z" fill="#6248CE" stroke="#6248CE" stroke-width="0.8"/>
<defs>
<filter id="filter0_d_697_443" x="0" y="0" width="95" height="95" filterUnits="userSpaceOnUse" color-interpolation-filters="sRGB">
<feFlood flood-opacity="0" result="BackgroundImageFix"/>
<feColorMatrix in="SourceAlpha" type="matrix" values="0 0 0 0 0 0 0 0 0 0 0 0 0 0 0 0 0 0 127 0" result="hardAlpha"/>
<feOffset/>
<feGaussianBlur stdDeviation="5"/>
<feComposite in2="hardAlpha" operator="out"/>
<feColorMatrix type="matrix" values="0 0 0 0 0.384314 0 0 0 0 0.282353 0 0 0 0 0.807843 0 0 0 0.25 0"/>
<feBlend mode="normal" in2="BackgroundImageFix" result="effect1_dropShadow_697_443"/>
<feBlend mode="normal" in="SourceGraphic" in2="effect1_dropShadow_697_443" result="shape"/>
</filter>
</defs>
</svg>
