<svg width="95" height="95" viewBox="0 0 95 95" fill="none" xmlns="http://www.w3.org/2000/svg">
<g filter="url(#filter0_d_697_455)">
<circle cx="47.5" cy="47.5" r="37.5" fill="#6248CE" fill-opacity="0.09" shape-rendering="crispEdges"/>
</g>
<path d="M37.9656 77.8609C38.1579 77.8609 38.3228 77.8039 38.4601 77.6899L47.4711 70.4517L56.4546 77.6615C56.7019 77.861 57.0315 77.8895 57.3337 77.747C57.6085 77.6045 57.8008 77.3196 57.8008 76.9776V62.9289C57.8008 62.5869 57.6085 62.2734 57.3063 62.1309C57.0041 61.9884 56.6469 62.0739 56.4272 62.3019L53.9272 64.7526L47.6086 63.8977H47.3888L41.0975 64.7526L38.5701 62.3019C38.3228 62.0739 37.9931 62.017 37.691 62.1309C37.3888 62.2734 37.1964 62.5869 37.1964 62.9289V77.0063C37.1964 77.3197 37.3888 77.6332 37.6635 77.7757C37.7184 77.8327 37.8558 77.8612 37.9657 77.8612L37.9656 77.8609ZM47.4712 68.5138C47.3064 68.5138 47.114 68.5708 46.9767 68.6848L38.8173 75.2391V64.8946L40.2184 66.2624C40.4107 66.4334 40.6305 66.5189 40.8777 66.4904L47.4711 65.607L54.0645 66.4904C54.3118 66.5189 54.559 66.4334 54.7239 66.2624L56.1249 64.8946V75.2391L47.9656 68.6848C47.8282 68.5993 47.6359 68.5138 47.4711 68.5138H47.4712Z" fill="#6248CE"/>
<path d="M54.1758 66.5181C54.3956 66.5181 54.5879 66.4326 54.7527 66.2901L59.6154 61.5596L65.4396 58.2539C65.6594 58.1399 65.7967 57.9119 65.8517 57.6554L67.0879 50.8731L69.9176 44.6322C70.0275 44.4042 70.0275 44.1192 69.9176 43.8913L67.0879 37.6504L65.8517 30.868C65.7967 30.6116 65.6594 30.4121 65.4396 30.2696L59.6154 26.9639L54.7527 22.2334C54.5604 22.0624 54.3407 21.9769 54.0934 22.0054L47.5 22.8603L40.9066 22.0054C40.6593 21.9769 40.4121 22.0624 40.2472 22.2334L35.3846 26.9639L29.5604 30.2696C29.3406 30.3836 29.2033 30.6116 29.1483 30.868L27.9121 37.6504L25.0824 43.8913C24.9725 44.1192 24.9725 44.3757 25.0824 44.6322L27.9121 50.8731L29.1483 57.6554C29.2033 57.9119 29.3406 58.1114 29.5604 58.2539L35.3846 61.5596L40.2472 66.2901C40.4396 66.4611 40.6593 66.5466 40.9066 66.5181L47.5 65.6347L54.0934 66.5181H54.1758H54.1758ZM64.2857 56.9429L58.7088 60.1061C58.6539 60.1346 58.5989 60.1916 58.544 60.2201L53.9011 64.7512L47.5825 63.8962H47.3627L41.0715 64.7512L36.4286 60.2201C36.3736 60.1631 36.3187 60.1346 36.2637 60.1061L30.6868 56.9144L29.5055 50.417C29.5055 50.36 29.4781 50.2745 29.4506 50.2175L26.7582 44.233L29.4506 38.277C29.4781 38.22 29.5055 38.1345 29.5055 38.0775L30.6868 31.5801L36.2637 28.3884C36.3187 28.3599 36.3736 28.3029 36.4286 28.2744L41.0715 23.7433L47.3901 24.5698H47.6099L53.9285 23.7433L58.5439 28.3029C58.5988 28.3599 58.6537 28.3884 58.7087 28.4169L64.2856 31.6086L65.4669 38.1061C65.4669 38.163 65.4944 38.2485 65.5218 38.3055L68.2416 44.2615L65.5218 50.246C65.4944 50.303 65.4669 50.3885 65.4669 50.4455L64.2857 56.9429Z" fill="#6248CE"/>
<path d="M47.4722 61.0751C56.4008 61.0751 63.6807 53.5232 63.6807 44.2619C63.6807 35.0006 56.4004 27.4774 47.4722 27.4774C38.544 27.4774 31.2913 35.0007 31.2913 44.2619C31.2639 53.5236 38.5441 61.0751 47.4722 61.0751ZM47.4722 29.158C55.4942 29.158 62.0329 35.9403 62.0329 44.2332C62.0329 52.5545 55.4945 59.3372 47.4722 59.3372C39.4498 59.3372 32.9391 52.5549 32.9391 44.2332C32.9116 35.9405 39.4501 29.158 47.4722 29.158Z" fill="#6248CE"/>
<path d="M40.6034 56.0599C40.7408 56.0599 40.8781 56.0315 40.988 55.9745L47.4716 52.4408L53.9551 55.9745C54.2298 56.117 54.5595 56.0884 54.8342 55.9175C55.0815 55.718 55.2188 55.4045 55.1639 55.091L53.9276 47.5962L59.1473 42.2957C59.3671 42.0677 59.4495 41.7257 59.3671 41.4122C59.2572 41.0988 59.0099 40.8708 58.7077 40.8423L51.4825 39.7309L48.2408 32.9486C48.1034 32.6636 47.8287 32.4641 47.4991 32.4641C47.1694 32.4641 46.8947 32.6351 46.7573 32.9486L43.5156 39.7309L36.2904 40.8423C35.9882 40.8993 35.7134 41.1273 35.631 41.4122C35.5486 41.6972 35.6036 42.0677 35.8508 42.2957L41.0705 47.5962L39.8617 55.091C39.8068 55.4045 39.9442 55.7465 40.1914 55.9175C40.2738 56.003 40.4387 56.06 40.6035 56.06L40.6034 56.0599ZM56.7843 42.2665L52.4437 46.6836C52.2514 46.8831 52.169 47.1681 52.1964 47.4245L53.2129 53.637L47.8283 50.7018C47.581 50.5594 47.3063 50.5594 47.0591 50.7018L41.6744 53.637L42.6909 47.3961C42.7459 47.1112 42.636 46.8262 42.4437 46.6552L38.1031 42.2381L44.0922 41.3262C44.3669 41.2977 44.5867 41.0982 44.724 40.8703L47.4713 35.2278L50.1636 40.8703C50.2735 41.1268 50.5208 41.2977 50.7955 41.3262L56.7843 42.2665Z" fill="#6248CE"/>
<defs>
<filter id="filter0_d_697_455" x="0" y="0" width="95" height="95" filterUnits="userSpaceOnUse" color-interpolation-filters="sRGB">
<feFlood flood-opacity="0" result="BackgroundImageFix"/>
<feColorMatrix in="SourceAlpha" type="matrix" values="0 0 0 0 0 0 0 0 0 0 0 0 0 0 0 0 0 0 127 0" result="hardAlpha"/>
<feOffset/>
<feGaussianBlur stdDeviation="5"/>
<feComposite in2="hardAlpha" operator="out"/>
<feColorMatrix type="matrix" values="0 0 0 0 0.384314 0 0 0 0 0.282353 0 0 0 0 0.807843 0 0 0 0.25 0"/>
<feBlend mode="normal" in2="BackgroundImageFix" result="effect1_dropShadow_697_455"/>
<feBlend mode="normal" in="SourceGraphic" in2="effect1_dropShadow_697_455" result="shape"/>
</filter>
</defs>
</svg>
