<svg width="95" height="95" viewBox="0 0 95 95" fill="none" xmlns="http://www.w3.org/2000/svg">
<g filter="url(#filter0_d_697_451)">
<circle cx="47.5" cy="47.5" r="37.5" fill="#6248CE" fill-opacity="0.09" shape-rendering="crispEdges"/>
</g>
<mask id="path-2-outside-1_697_451" maskUnits="userSpaceOnUse" x="21" y="21" width="53" height="53" fill="black">
<rect fill="white" x="21" y="21" width="53" height="53"/>
<path d="M46.3387 22C44.5193 22.0256 43.0558 22.4943 42.0424 23.4264C41.0289 24.3583 40.5056 25.7147 40.4129 27.2979C40.4117 27.3186 40.4137 27.3178 40.4129 27.3351C38.0426 27.3364 36.3523 27.3455 33.8943 27.3351C33.584 27.3351 33.3019 27.6177 33.3015 27.9279V32.6702C29.89 32.6702 27.3831 35.0442 27.3757 38.0053C27.3687 40.824 29.8598 43.3403 33.3015 43.3403V48.0826C33.3015 48.3928 33.5836 48.6754 33.8943 48.6754H41.0052C41.3154 48.6754 41.5976 48.3928 41.598 48.0826C41.598 47.3847 41.6054 47.7256 41.598 47.4712C41.5628 46.2558 42.0149 45.268 42.8386 44.5445C43.6552 43.8272 44.8668 43.3813 46.32 43.3403C46.3332 43.3407 46.344 43.3399 46.3572 43.3403C47.8105 43.3812 49.0221 43.8272 49.8387 44.5445C50.6627 45.2684 51.1148 46.2558 51.0793 47.4712C51.0718 47.7256 51.0793 47.3847 51.0793 48.0826C51.0793 48.3928 51.3614 48.6754 51.672 48.6754H58.7829C59.0932 48.6754 59.3753 48.3928 59.3757 48.0826V43.3403C62.8179 43.3403 65.3085 40.824 65.3015 38.0053C65.2941 35.0442 62.7873 32.6702 59.3757 32.6702V27.9279C59.3757 27.6177 59.0936 27.3351 58.7829 27.3351C56.3249 27.3455 54.6347 27.3364 52.2643 27.3351C52.2635 27.3178 52.2656 27.3186 52.2643 27.2979C52.1717 25.7148 51.6484 24.3584 50.6349 23.4264C49.6214 22.4944 48.1579 22.0253 46.3387 22ZM46.3387 23.1855C47.9606 23.2083 49.0705 23.6079 49.8201 24.297C50.5696 24.9862 50.9991 25.986 51.0793 27.3536C51.0872 27.4872 51.0814 27.4239 51.0793 27.4649C51.0773 27.5054 51.0793 27.6262 51.0793 27.9282C51.0793 28.2384 51.3615 28.521 51.6721 28.521C54.1897 28.5206 55.8684 28.528 58.1907 28.521V33.2632C58.1907 33.5735 58.4728 33.856 58.7835 33.856H59.3763C62.2592 33.856 64.1111 35.6969 64.117 38.0056C64.1223 40.1235 62.2497 42.1551 59.3763 42.1551H58.7835C58.4733 42.1551 58.1911 42.4376 58.1907 42.7479V47.4901H52.2649C52.3038 45.9542 51.6817 44.5912 50.6169 43.6554C49.5476 42.716 48.06 42.1939 46.3578 42.1551C46.3454 42.1547 46.333 42.1547 46.3206 42.1551C44.6184 42.194 43.1308 42.716 42.0614 43.6554C40.9966 44.5907 40.374 45.9542 40.4134 47.4901H34.4877V42.7479C34.4877 42.4376 34.2055 42.1551 33.8949 42.1551H33.3021C30.4287 42.1551 28.5561 40.1235 28.5614 38.0056C28.5672 35.6969 30.4196 33.856 33.3021 33.856H33.8949C34.2051 33.856 34.4872 33.5735 34.4877 33.2632V28.521C36.81 28.528 38.4886 28.5206 41.0063 28.521C41.3165 28.521 41.5986 28.2384 41.599 27.9282C41.599 27.6266 41.6011 27.5058 41.599 27.4649C41.597 27.4243 41.5912 27.4872 41.599 27.3536C41.6793 25.986 42.0905 24.9862 42.8397 24.297C43.5892 23.6079 44.7177 23.2083 46.3397 23.1855H46.3387ZM37.9313 31.4845C37.6595 31.5362 37.4448 31.8006 37.4497 32.0773C37.4593 34.1109 37.4493 33.5488 37.4497 35.634C37.4452 35.9472 37.7294 36.2351 38.0425 36.2351C38.3557 36.2351 38.6395 35.9472 38.6353 35.634C38.6349 33.9082 38.6382 33.7493 38.6353 32.6701H39.2281C39.5413 32.6747 39.8292 32.3905 39.8292 32.0773C39.8292 31.7642 39.5413 31.48 39.2281 31.4845L37.9313 31.4845ZM43.2646 31.4845C42.9544 31.5135 42.6983 31.8225 42.7277 32.1327C42.7567 32.443 43.0657 32.699 43.3759 32.6701C43.6891 32.6746 43.977 32.3904 43.977 32.0773C43.977 31.7641 43.6891 31.48 43.3759 31.4845C43.3391 31.4808 43.3019 31.4808 43.2646 31.4845ZM50.9683 31.4845C50.6581 31.5135 50.402 31.8225 50.4314 32.1327C50.4604 32.443 50.7694 32.699 51.0796 32.6701C52.8137 32.6697 52.9457 32.673 54.0427 32.6701V33.2629C54.0381 33.576 54.3223 33.8639 54.6355 33.8639C54.9486 33.8639 55.2324 33.576 55.2283 33.2629V32.0773C55.2283 31.7671 54.9461 31.4845 54.6355 31.4845C52.4973 31.492 52.3203 31.4845 50.9683 31.4845ZM54.5238 36.8196C54.2135 36.8485 53.9575 37.1575 53.9869 37.4678C54.0158 37.778 54.3248 38.0341 54.6351 38.0051C54.9482 38.0093 55.2361 37.7255 55.2361 37.4124C55.2361 37.0992 54.9482 36.815 54.6351 36.8196C54.5983 36.8158 54.561 36.8159 54.5238 36.8196ZM69.913 47.4899C69.8009 47.5156 69.6967 47.5739 69.6168 47.6566C67.8256 49.483 63.6989 53.0546 61.3389 55.3629C61.0514 55.5561 61.003 56.0219 61.2454 56.2697C61.4878 56.5174 61.954 56.4798 62.1538 56.1964C64.3926 54.0069 68.296 50.6491 70.2464 48.6941C70.7482 48.7231 71.0775 48.8844 71.3203 49.1943C71.5967 49.5467 71.7617 50.1089 71.8018 50.7505C71.8821 52.0332 71.3671 53.6039 70.802 54.1772C70.7954 54.1892 70.7892 54.2016 70.7834 54.2141C65.9373 59.8399 62.3074 62.8787 57.3576 67.6441H36.8577C36.7158 67.6441 36.5751 67.6987 36.4688 67.7922L31.7282 71.9418C31.4651 72.1358 31.4183 72.5635 31.6334 72.8096C31.8485 73.0558 32.2788 73.0661 32.5059 72.8311L37.0797 68.8298H57.5976C57.7478 68.8298 57.8971 68.7677 58.0051 68.663C63.0142 63.8286 66.7074 60.7475 71.6533 55.0106C71.6632 54.9994 71.662 54.9849 71.6719 54.9738C72.6263 53.9822 73.0866 52.2712 72.9866 50.6762C72.9361 49.8708 72.7301 49.0894 72.2457 48.4718C71.7617 47.8542 70.9749 47.4625 70.0235 47.4902C69.9867 47.4844 69.9494 47.4844 69.9122 47.4902L69.913 47.4899ZM42.0796 51.6395C41.7694 51.6684 41.5133 51.9774 41.5427 52.2877C41.5717 52.5979 41.8807 52.854 42.1909 52.825C42.5041 52.8308 42.792 52.5454 42.792 52.2323C42.792 51.9191 42.5041 51.6349 42.1909 51.6395C42.1541 51.6337 42.1169 51.6337 42.0796 51.6395ZM46.2279 51.6395C45.9176 51.6684 45.6616 51.9774 45.691 52.2877C45.7199 52.5979 46.0289 52.854 46.3392 52.825C46.6523 52.8308 46.9402 52.5454 46.9402 52.2323C46.9402 51.9191 46.6523 51.6349 46.3392 51.6395C46.3024 51.6337 46.2651 51.6337 46.2279 51.6395ZM50.3762 51.6395C50.0659 51.6684 49.8099 51.9774 49.8392 52.2877C49.8682 52.5979 50.1772 52.854 50.4874 52.825C50.8006 52.8308 51.0885 52.5454 51.0885 52.2323C51.0885 51.9191 50.8006 51.6349 50.4874 51.6395C50.4506 51.6337 50.4134 51.6337 50.3762 51.6395ZM33.7839 55.789C33.6967 55.8072 33.6139 55.8453 33.5432 55.9003C23.784 62.9749 26.323 61.1162 22.284 64.1993C21.9965 64.3668 21.9084 64.7991 22.1074 65.0655C22.306 65.3323 22.7453 65.3712 22.9881 65.1437C26.9816 62.0958 24.7875 63.724 34.099 56.9741H57.2283C57.7247 57.7332 57.6474 58.6908 57.1171 59.5678C56.5392 60.5233 55.5265 61.1977 54.6913 61.1235H54.6359H42.7837C42.4706 61.1177 42.1827 61.4032 42.1827 61.7163C42.1827 62.0295 42.4706 62.3137 42.7837 62.3091H54.6359V62.2909C56.0805 62.391 57.3856 61.4197 58.136 60.1792C58.8959 58.9225 59.106 57.2364 58.0433 55.9925C57.9329 55.8655 57.767 55.7894 57.599 55.7885L33.7839 55.789ZM38.5246 61.1241C38.2144 61.153 37.9583 61.4621 37.9877 61.7723C38.0166 62.0826 38.3256 62.3386 38.6359 62.3097C38.949 62.3154 39.2369 62.03 39.2369 61.7169C39.2369 61.4037 38.949 61.1195 38.6359 61.1241C38.5991 61.1183 38.5618 61.1183 38.5246 61.1241Z"/>
</mask>
<path d="M46.3387 22C44.5193 22.0256 43.0558 22.4943 42.0424 23.4264C41.0289 24.3583 40.5056 25.7147 40.4129 27.2979C40.4117 27.3186 40.4137 27.3178 40.4129 27.3351C38.0426 27.3364 36.3523 27.3455 33.8943 27.3351C33.584 27.3351 33.3019 27.6177 33.3015 27.9279V32.6702C29.89 32.6702 27.3831 35.0442 27.3757 38.0053C27.3687 40.824 29.8598 43.3403 33.3015 43.3403V48.0826C33.3015 48.3928 33.5836 48.6754 33.8943 48.6754H41.0052C41.3154 48.6754 41.5976 48.3928 41.598 48.0826C41.598 47.3847 41.6054 47.7256 41.598 47.4712C41.5628 46.2558 42.0149 45.268 42.8386 44.5445C43.6552 43.8272 44.8668 43.3813 46.32 43.3403C46.3332 43.3407 46.344 43.3399 46.3572 43.3403C47.8105 43.3812 49.0221 43.8272 49.8387 44.5445C50.6627 45.2684 51.1148 46.2558 51.0793 47.4712C51.0718 47.7256 51.0793 47.3847 51.0793 48.0826C51.0793 48.3928 51.3614 48.6754 51.672 48.6754H58.7829C59.0932 48.6754 59.3753 48.3928 59.3757 48.0826V43.3403C62.8179 43.3403 65.3085 40.824 65.3015 38.0053C65.2941 35.0442 62.7873 32.6702 59.3757 32.6702V27.9279C59.3757 27.6177 59.0936 27.3351 58.7829 27.3351C56.3249 27.3455 54.6347 27.3364 52.2643 27.3351C52.2635 27.3178 52.2656 27.3186 52.2643 27.2979C52.1717 25.7148 51.6484 24.3584 50.6349 23.4264C49.6214 22.4944 48.1579 22.0253 46.3387 22ZM46.3387 23.1855C47.9606 23.2083 49.0705 23.6079 49.8201 24.297C50.5696 24.9862 50.9991 25.986 51.0793 27.3536C51.0872 27.4872 51.0814 27.4239 51.0793 27.4649C51.0773 27.5054 51.0793 27.6262 51.0793 27.9282C51.0793 28.2384 51.3615 28.521 51.6721 28.521C54.1897 28.5206 55.8684 28.528 58.1907 28.521V33.2632C58.1907 33.5735 58.4728 33.856 58.7835 33.856H59.3763C62.2592 33.856 64.1111 35.6969 64.117 38.0056C64.1223 40.1235 62.2497 42.1551 59.3763 42.1551H58.7835C58.4733 42.1551 58.1911 42.4376 58.1907 42.7479V47.4901H52.2649C52.3038 45.9542 51.6817 44.5912 50.6169 43.6554C49.5476 42.716 48.06 42.1939 46.3578 42.1551C46.3454 42.1547 46.333 42.1547 46.3206 42.1551C44.6184 42.194 43.1308 42.716 42.0614 43.6554C40.9966 44.5907 40.374 45.9542 40.4134 47.4901H34.4877V42.7479C34.4877 42.4376 34.2055 42.1551 33.8949 42.1551H33.3021C30.4287 42.1551 28.5561 40.1235 28.5614 38.0056C28.5672 35.6969 30.4196 33.856 33.3021 33.856H33.8949C34.2051 33.856 34.4872 33.5735 34.4877 33.2632V28.521C36.81 28.528 38.4886 28.5206 41.0063 28.521C41.3165 28.521 41.5986 28.2384 41.599 27.9282C41.599 27.6266 41.6011 27.5058 41.599 27.4649C41.597 27.4243 41.5912 27.4872 41.599 27.3536C41.6793 25.986 42.0905 24.9862 42.8397 24.297C43.5892 23.6079 44.7177 23.2083 46.3397 23.1855H46.3387ZM37.9313 31.4845C37.6595 31.5362 37.4448 31.8006 37.4497 32.0773C37.4593 34.1109 37.4493 33.5488 37.4497 35.634C37.4452 35.9472 37.7294 36.2351 38.0425 36.2351C38.3557 36.2351 38.6395 35.9472 38.6353 35.634C38.6349 33.9082 38.6382 33.7493 38.6353 32.6701H39.2281C39.5413 32.6747 39.8292 32.3905 39.8292 32.0773C39.8292 31.7642 39.5413 31.48 39.2281 31.4845L37.9313 31.4845ZM43.2646 31.4845C42.9544 31.5135 42.6983 31.8225 42.7277 32.1327C42.7567 32.443 43.0657 32.699 43.3759 32.6701C43.6891 32.6746 43.977 32.3904 43.977 32.0773C43.977 31.7641 43.6891 31.48 43.3759 31.4845C43.3391 31.4808 43.3019 31.4808 43.2646 31.4845ZM50.9683 31.4845C50.6581 31.5135 50.402 31.8225 50.4314 32.1327C50.4604 32.443 50.7694 32.699 51.0796 32.6701C52.8137 32.6697 52.9457 32.673 54.0427 32.6701V33.2629C54.0381 33.576 54.3223 33.8639 54.6355 33.8639C54.9486 33.8639 55.2324 33.576 55.2283 33.2629V32.0773C55.2283 31.7671 54.9461 31.4845 54.6355 31.4845C52.4973 31.492 52.3203 31.4845 50.9683 31.4845ZM54.5238 36.8196C54.2135 36.8485 53.9575 37.1575 53.9869 37.4678C54.0158 37.778 54.3248 38.0341 54.6351 38.0051C54.9482 38.0093 55.2361 37.7255 55.2361 37.4124C55.2361 37.0992 54.9482 36.815 54.6351 36.8196C54.5983 36.8158 54.561 36.8159 54.5238 36.8196ZM69.913 47.4899C69.8009 47.5156 69.6967 47.5739 69.6168 47.6566C67.8256 49.483 63.6989 53.0546 61.3389 55.3629C61.0514 55.5561 61.003 56.0219 61.2454 56.2697C61.4878 56.5174 61.954 56.4798 62.1538 56.1964C64.3926 54.0069 68.296 50.6491 70.2464 48.6941C70.7482 48.7231 71.0775 48.8844 71.3203 49.1943C71.5967 49.5467 71.7617 50.1089 71.8018 50.7505C71.8821 52.0332 71.3671 53.6039 70.802 54.1772C70.7954 54.1892 70.7892 54.2016 70.7834 54.2141C65.9373 59.8399 62.3074 62.8787 57.3576 67.6441H36.8577C36.7158 67.6441 36.5751 67.6987 36.4688 67.7922L31.7282 71.9418C31.4651 72.1358 31.4183 72.5635 31.6334 72.8096C31.8485 73.0558 32.2788 73.0661 32.5059 72.8311L37.0797 68.8298H57.5976C57.7478 68.8298 57.8971 68.7677 58.0051 68.663C63.0142 63.8286 66.7074 60.7475 71.6533 55.0106C71.6632 54.9994 71.662 54.9849 71.6719 54.9738C72.6263 53.9822 73.0866 52.2712 72.9866 50.6762C72.9361 49.8708 72.7301 49.0894 72.2457 48.4718C71.7617 47.8542 70.9749 47.4625 70.0235 47.4902C69.9867 47.4844 69.9494 47.4844 69.9122 47.4902L69.913 47.4899ZM42.0796 51.6395C41.7694 51.6684 41.5133 51.9774 41.5427 52.2877C41.5717 52.5979 41.8807 52.854 42.1909 52.825C42.5041 52.8308 42.792 52.5454 42.792 52.2323C42.792 51.9191 42.5041 51.6349 42.1909 51.6395C42.1541 51.6337 42.1169 51.6337 42.0796 51.6395ZM46.2279 51.6395C45.9176 51.6684 45.6616 51.9774 45.691 52.2877C45.7199 52.5979 46.0289 52.854 46.3392 52.825C46.6523 52.8308 46.9402 52.5454 46.9402 52.2323C46.9402 51.9191 46.6523 51.6349 46.3392 51.6395C46.3024 51.6337 46.2651 51.6337 46.2279 51.6395ZM50.3762 51.6395C50.0659 51.6684 49.8099 51.9774 49.8392 52.2877C49.8682 52.5979 50.1772 52.854 50.4874 52.825C50.8006 52.8308 51.0885 52.5454 51.0885 52.2323C51.0885 51.9191 50.8006 51.6349 50.4874 51.6395C50.4506 51.6337 50.4134 51.6337 50.3762 51.6395ZM33.7839 55.789C33.6967 55.8072 33.6139 55.8453 33.5432 55.9003C23.784 62.9749 26.323 61.1162 22.284 64.1993C21.9965 64.3668 21.9084 64.7991 22.1074 65.0655C22.306 65.3323 22.7453 65.3712 22.9881 65.1437C26.9816 62.0958 24.7875 63.724 34.099 56.9741H57.2283C57.7247 57.7332 57.6474 58.6908 57.1171 59.5678C56.5392 60.5233 55.5265 61.1977 54.6913 61.1235H54.6359H42.7837C42.4706 61.1177 42.1827 61.4032 42.1827 61.7163C42.1827 62.0295 42.4706 62.3137 42.7837 62.3091H54.6359V62.2909C56.0805 62.391 57.3856 61.4197 58.136 60.1792C58.8959 58.9225 59.106 57.2364 58.0433 55.9925C57.9329 55.8655 57.767 55.7894 57.599 55.7885L33.7839 55.789ZM38.5246 61.1241C38.2144 61.153 37.9583 61.4621 37.9877 61.7723C38.0166 62.0826 38.3256 62.3386 38.6359 62.3097C38.949 62.3154 39.2369 62.03 39.2369 61.7169C39.2369 61.4037 38.949 61.1195 38.6359 61.1241C38.5991 61.1183 38.5618 61.1183 38.5246 61.1241Z" fill="#6248CE"/>
<path d="M46.3387 22C44.5193 22.0256 43.0558 22.4943 42.0424 23.4264C41.0289 24.3583 40.5056 25.7147 40.4129 27.2979C40.4117 27.3186 40.4137 27.3178 40.4129 27.3351C38.0426 27.3364 36.3523 27.3455 33.8943 27.3351C33.584 27.3351 33.3019 27.6177 33.3015 27.9279V32.6702C29.89 32.6702 27.3831 35.0442 27.3757 38.0053C27.3687 40.824 29.8598 43.3403 33.3015 43.3403V48.0826C33.3015 48.3928 33.5836 48.6754 33.8943 48.6754H41.0052C41.3154 48.6754 41.5976 48.3928 41.598 48.0826C41.598 47.3847 41.6054 47.7256 41.598 47.4712C41.5628 46.2558 42.0149 45.268 42.8386 44.5445C43.6552 43.8272 44.8668 43.3813 46.32 43.3403C46.3332 43.3407 46.344 43.3399 46.3572 43.3403C47.8105 43.3812 49.0221 43.8272 49.8387 44.5445C50.6627 45.2684 51.1148 46.2558 51.0793 47.4712C51.0718 47.7256 51.0793 47.3847 51.0793 48.0826C51.0793 48.3928 51.3614 48.6754 51.672 48.6754H58.7829C59.0932 48.6754 59.3753 48.3928 59.3757 48.0826V43.3403C62.8179 43.3403 65.3085 40.824 65.3015 38.0053C65.2941 35.0442 62.7873 32.6702 59.3757 32.6702V27.9279C59.3757 27.6177 59.0936 27.3351 58.7829 27.3351C56.3249 27.3455 54.6347 27.3364 52.2643 27.3351C52.2635 27.3178 52.2656 27.3186 52.2643 27.2979C52.1717 25.7148 51.6484 24.3584 50.6349 23.4264C49.6214 22.4944 48.1579 22.0253 46.3387 22ZM46.3387 23.1855C47.9606 23.2083 49.0705 23.6079 49.8201 24.297C50.5696 24.9862 50.9991 25.986 51.0793 27.3536C51.0872 27.4872 51.0814 27.4239 51.0793 27.4649C51.0773 27.5054 51.0793 27.6262 51.0793 27.9282C51.0793 28.2384 51.3615 28.521 51.6721 28.521C54.1897 28.5206 55.8684 28.528 58.1907 28.521V33.2632C58.1907 33.5735 58.4728 33.856 58.7835 33.856H59.3763C62.2592 33.856 64.1111 35.6969 64.117 38.0056C64.1223 40.1235 62.2497 42.1551 59.3763 42.1551H58.7835C58.4733 42.1551 58.1911 42.4376 58.1907 42.7479V47.4901H52.2649C52.3038 45.9542 51.6817 44.5912 50.6169 43.6554C49.5476 42.716 48.06 42.1939 46.3578 42.1551C46.3454 42.1547 46.333 42.1547 46.3206 42.1551C44.6184 42.194 43.1308 42.716 42.0614 43.6554C40.9966 44.5907 40.374 45.9542 40.4134 47.4901H34.4877V42.7479C34.4877 42.4376 34.2055 42.1551 33.8949 42.1551H33.3021C30.4287 42.1551 28.5561 40.1235 28.5614 38.0056C28.5672 35.6969 30.4196 33.856 33.3021 33.856H33.8949C34.2051 33.856 34.4872 33.5735 34.4877 33.2632V28.521C36.81 28.528 38.4886 28.5206 41.0063 28.521C41.3165 28.521 41.5986 28.2384 41.599 27.9282C41.599 27.6266 41.6011 27.5058 41.599 27.4649C41.597 27.4243 41.5912 27.4872 41.599 27.3536C41.6793 25.986 42.0905 24.9862 42.8397 24.297C43.5892 23.6079 44.7177 23.2083 46.3397 23.1855H46.3387ZM37.9313 31.4845C37.6595 31.5362 37.4448 31.8006 37.4497 32.0773C37.4593 34.1109 37.4493 33.5488 37.4497 35.634C37.4452 35.9472 37.7294 36.2351 38.0425 36.2351C38.3557 36.2351 38.6395 35.9472 38.6353 35.634C38.6349 33.9082 38.6382 33.7493 38.6353 32.6701H39.2281C39.5413 32.6747 39.8292 32.3905 39.8292 32.0773C39.8292 31.7642 39.5413 31.48 39.2281 31.4845L37.9313 31.4845ZM43.2646 31.4845C42.9544 31.5135 42.6983 31.8225 42.7277 32.1327C42.7567 32.443 43.0657 32.699 43.3759 32.6701C43.6891 32.6746 43.977 32.3904 43.977 32.0773C43.977 31.7641 43.6891 31.48 43.3759 31.4845C43.3391 31.4808 43.3019 31.4808 43.2646 31.4845ZM50.9683 31.4845C50.6581 31.5135 50.402 31.8225 50.4314 32.1327C50.4604 32.443 50.7694 32.699 51.0796 32.6701C52.8137 32.6697 52.9457 32.673 54.0427 32.6701V33.2629C54.0381 33.576 54.3223 33.8639 54.6355 33.8639C54.9486 33.8639 55.2324 33.576 55.2283 33.2629V32.0773C55.2283 31.7671 54.9461 31.4845 54.6355 31.4845C52.4973 31.492 52.3203 31.4845 50.9683 31.4845ZM54.5238 36.8196C54.2135 36.8485 53.9575 37.1575 53.9869 37.4678C54.0158 37.778 54.3248 38.0341 54.6351 38.0051C54.9482 38.0093 55.2361 37.7255 55.2361 37.4124C55.2361 37.0992 54.9482 36.815 54.6351 36.8196C54.5983 36.8158 54.561 36.8159 54.5238 36.8196ZM69.913 47.4899C69.8009 47.5156 69.6967 47.5739 69.6168 47.6566C67.8256 49.483 63.6989 53.0546 61.3389 55.3629C61.0514 55.5561 61.003 56.0219 61.2454 56.2697C61.4878 56.5174 61.954 56.4798 62.1538 56.1964C64.3926 54.0069 68.296 50.6491 70.2464 48.6941C70.7482 48.7231 71.0775 48.8844 71.3203 49.1943C71.5967 49.5467 71.7617 50.1089 71.8018 50.7505C71.8821 52.0332 71.3671 53.6039 70.802 54.1772C70.7954 54.1892 70.7892 54.2016 70.7834 54.2141C65.9373 59.8399 62.3074 62.8787 57.3576 67.6441H36.8577C36.7158 67.6441 36.5751 67.6987 36.4688 67.7922L31.7282 71.9418C31.4651 72.1358 31.4183 72.5635 31.6334 72.8096C31.8485 73.0558 32.2788 73.0661 32.5059 72.8311L37.0797 68.8298H57.5976C57.7478 68.8298 57.8971 68.7677 58.0051 68.663C63.0142 63.8286 66.7074 60.7475 71.6533 55.0106C71.6632 54.9994 71.662 54.9849 71.6719 54.9738C72.6263 53.9822 73.0866 52.2712 72.9866 50.6762C72.9361 49.8708 72.7301 49.0894 72.2457 48.4718C71.7617 47.8542 70.9749 47.4625 70.0235 47.4902C69.9867 47.4844 69.9494 47.4844 69.9122 47.4902L69.913 47.4899ZM42.0796 51.6395C41.7694 51.6684 41.5133 51.9774 41.5427 52.2877C41.5717 52.5979 41.8807 52.854 42.1909 52.825C42.5041 52.8308 42.792 52.5454 42.792 52.2323C42.792 51.9191 42.5041 51.6349 42.1909 51.6395C42.1541 51.6337 42.1169 51.6337 42.0796 51.6395ZM46.2279 51.6395C45.9176 51.6684 45.6616 51.9774 45.691 52.2877C45.7199 52.5979 46.0289 52.854 46.3392 52.825C46.6523 52.8308 46.9402 52.5454 46.9402 52.2323C46.9402 51.9191 46.6523 51.6349 46.3392 51.6395C46.3024 51.6337 46.2651 51.6337 46.2279 51.6395ZM50.3762 51.6395C50.0659 51.6684 49.8099 51.9774 49.8392 52.2877C49.8682 52.5979 50.1772 52.854 50.4874 52.825C50.8006 52.8308 51.0885 52.5454 51.0885 52.2323C51.0885 51.9191 50.8006 51.6349 50.4874 51.6395C50.4506 51.6337 50.4134 51.6337 50.3762 51.6395ZM33.7839 55.789C33.6967 55.8072 33.6139 55.8453 33.5432 55.9003C23.784 62.9749 26.323 61.1162 22.284 64.1993C21.9965 64.3668 21.9084 64.7991 22.1074 65.0655C22.306 65.3323 22.7453 65.3712 22.9881 65.1437C26.9816 62.0958 24.7875 63.724 34.099 56.9741H57.2283C57.7247 57.7332 57.6474 58.6908 57.1171 59.5678C56.5392 60.5233 55.5265 61.1977 54.6913 61.1235H54.6359H42.7837C42.4706 61.1177 42.1827 61.4032 42.1827 61.7163C42.1827 62.0295 42.4706 62.3137 42.7837 62.3091H54.6359V62.2909C56.0805 62.391 57.3856 61.4197 58.136 60.1792C58.8959 58.9225 59.106 57.2364 58.0433 55.9925C57.9329 55.8655 57.767 55.7894 57.599 55.7885L33.7839 55.789ZM38.5246 61.1241C38.2144 61.153 37.9583 61.4621 37.9877 61.7723C38.0166 62.0826 38.3256 62.3386 38.6359 62.3097C38.949 62.3154 39.2369 62.03 39.2369 61.7169C39.2369 61.4037 38.949 61.1195 38.6359 61.1241C38.5991 61.1183 38.5618 61.1183 38.5246 61.1241Z" stroke="#6248CE" stroke-width="0.6" mask="url(#path-2-outside-1_697_451)"/>
<defs>
<filter id="filter0_d_697_451" x="0" y="0" width="95" height="95" filterUnits="userSpaceOnUse" color-interpolation-filters="sRGB">
<feFlood flood-opacity="0" result="BackgroundImageFix"/>
<feColorMatrix in="SourceAlpha" type="matrix" values="0 0 0 0 0 0 0 0 0 0 0 0 0 0 0 0 0 0 127 0" result="hardAlpha"/>
<feOffset/>
<feGaussianBlur stdDeviation="5"/>
<feComposite in2="hardAlpha" operator="out"/>
<feColorMatrix type="matrix" values="0 0 0 0 0.384314 0 0 0 0 0.282353 0 0 0 0 0.807843 0 0 0 0.25 0"/>
<feBlend mode="normal" in2="BackgroundImageFix" result="effect1_dropShadow_697_451"/>
<feBlend mode="normal" in="SourceGraphic" in2="effect1_dropShadow_697_451" result="shape"/>
</filter>
</defs>
</svg>
